<?xml version="1.0" encoding="utf-8"?>
<!-- Generator: Adobe Illustrator 28.3.0, SVG Export Plug-In . SVG Version: 6.00 Build 0)  -->
<svg version="1.1" xmlns="http://www.w3.org/2000/svg" xmlns:xlink="http://www.w3.org/1999/xlink" x="0px" y="0px"
	 viewBox="0 0 974 566" style="enable-background:new 0 0 974 566;" xml:space="preserve">
<style type="text/css">
	.st0{fill:#FFED00;}
	.st1{fill:#C8B700;}
</style>
<g id="Layer_1">
	<circle class="st0" cx="274.98" cy="290" r="199"/>
	<path d="M312.02,202.1c-10.03,9.35-17.08,22.18-21.16,38.49l29.57,7.14c2.04-8.84,5.44-15.89,10.2-21.16
		c4.76-5.27,10.03-7.9,15.81-7.9s11.05,2.63,15.81,7.9c4.76,5.27,8.16,12.32,10.2,21.16l29.57-7.14
		c-4.08-16.32-11.13-29.15-21.16-38.49c-10.03-9.35-21.5-14.02-34.42-14.02S322.04,192.75,312.02,202.1z"/>
	<path d="M274.98,381.83c0.02,0,0.04,0,0.07,0c14.28,0,26.34-4.93,36.2-14.79c9.86-9.86,14.79-21.92,14.79-36.2v-10.2h-51.05v-30.59
		h81.65v40.79c0,22.43-7.99,41.64-23.96,57.62c-15.98,15.98-35.18,23.96-57.62,23.96c-0.02,0-0.04,0-0.07,0V381.83z"/>
</g>
<g id="Layer_2">
</g>
<g id="Layer_4">
	<g>
		<path d="M462.94,210.51c-10.71-24.81-25.24-46.4-43.59-64.75s-39.94-32.89-64.75-43.59c-24.71-10.66-51.1-16.01-79.18-16.06V14.54
			H221.8c-6.76,0-12.39,4.79-13.51,11.54l-10.13,71.5c-16.61,6.76-31.53,15.76-45.6,26.46L85.27,97.01
			c-6.19-1.97-13.23,0-16.61,6.19l-54.05,93.46c-3.1,5.63-1.69,13.23,3.38,17.17l57.14,44.48c-1.41,8.44-1.97,17.45-1.97,26.46
			c0,9.29,0.56,18.02,1.69,26.46L18.28,355.7c-5.35,3.94-6.76,10.98-3.38,17.17l54.05,93.46c3.38,6.19,10.42,8.44,16.61,6.19
			l67.28-27.02c13.79,10.7,28.99,19.7,45.6,26.46l10.13,71.5c0.84,6.76,6.47,11.54,13.23,11.54h53.61v-61
			c28.08-0.05,54.47-5.4,79.18-16.06c24.81-10.71,46.4-25.24,64.75-43.59s32.89-39.94,43.59-64.75S479,318.27,479,290.05
			S473.64,235.33,462.94,210.51z M403.49,418.49c-35,35-77.69,52.53-128.07,52.61V441h0.57V131h-0.57v-22
			c50.39,0.08,93.08,17.62,128.07,52.61c35.08,35.08,52.62,77.89,52.62,128.43S438.56,383.41,403.49,418.49z"/>
	</g>
	<g>
		<path d="M586.53,370.83c0,1.97,0.31,3.62,0.94,4.96c0.62,1.34,1.38,2.64,2.28,3.89l-43.17,1.07l-2.95-2.41l-0.54-25.47
			c0.71,0.36,1.38,0.45,2.01,0.27c0.62-0.18,1.29-0.44,2.01-0.8c0.71-0.36,1.52-0.67,2.41-0.94c0.89-0.27,1.88-0.22,2.95,0.13
			c0,0.36,0.09,0.8,0.27,1.34c0.18,0.54,0.36,0.36,0.54-0.54c0-0.71-0.27-1.21-0.8-1.48c-0.54-0.27-0.9-0.76-1.07-1.47
			c-2.14,0.54-3.75,0.76-4.83,0.67c-1.07-0.09-2.24,0.49-3.49,1.74l-1.07-60.6l4.56,6.7c-1.79-6.25-3.31-10.46-4.56-12.6v-6.44
			l0.8-0.54c-0.36-0.36-0.72-0.62-1.07-0.8v-6.7c0.89,0.36,1.56,1.07,2.01,2.15c0.44,1.07,1.38,1.61,2.82,1.61
			c-0.36-1.61-0.18-2.68,0.54-3.22c0.71-0.54,1.56-0.94,2.55-1.21c0.98-0.27,1.83-0.62,2.55-1.07c0.71-0.44,0.8-1.56,0.27-3.35
			c-1.97,0.9-3.62,1.88-4.96,2.95c-1.34,1.07-3.26,1.7-5.76,1.88l-0.27-17.16c0.36,0.36,0.76,0.63,1.21,0.8
			c0.44,0.18,1.11,0.18,2.01,0c0-1.25-0.36-2.1-1.07-2.55c-0.72-0.44-1.43-0.4-2.15,0.13l-0.54-25.47c1.61-0.18,3.22-0.18,4.83,0
			c1.61,0.18,3.22,0.72,4.83,1.61c0.36-1.25,1.11-2.01,2.28-2.28c1.16-0.27,2.5-0.44,4.02-0.54c1.52-0.09,2.95-0.22,4.29-0.4
			c1.34-0.18,2.28-0.71,2.82-1.61c-5.01-0.18-9.34-0.22-13-0.13c-3.67,0.09-7.02,0.31-10.06,0.67v-2.95c0.36,0,0.67,0.05,0.94,0.13
			c0.27,0.09,0.58,0.13,0.94,0.13c-0.36-0.71-0.36-1.38,0-2.01c0.36-0.62,0.67-1.21,0.94-1.74c0.27-0.54,0.4-0.94,0.4-1.21
			c0-0.27-0.45-0.49-1.34-0.67c0.36,0.9,0.31,1.43-0.13,1.61c-0.45,0.18-1.03,0.27-1.74,0.27l-0.27-10.73
			c1.07-1.43,0.98-3.31-0.27-5.63l1.34-2.15l22.52-1.34c0.36,0.18,0.98,0.27,1.88,0.27v-0.27l33.52-0.54
			c10.55-0.18,20.11,0.98,28.69,3.49c8.58,2.51,16,6.8,22.26,12.87h-0.8v2.15h1.88v-1.07c1.25,1.43,2.46,2.82,3.62,4.16
			c1.16,1.34,2.28,2.82,3.35,4.42c-0.36,0.18-0.58,0.36-0.67,0.54c-0.09,0.18-0.23,0.36-0.4,0.54c0.36,0.18,0.71,0.31,1.07,0.4
			c0.36,0.09,0.71,0.23,1.07,0.4c1.25,1.79,2.41,4.02,3.49,6.7c0,0.36,0.04,0.76,0.13,1.21c0.09,0.45,0.04,0.85-0.13,1.21
			c0.36,0,0.71-0.09,1.07-0.27c2.5,5.72,4.38,12.25,5.63,19.57c1.25,7.33,1.96,15.55,2.15,24.67l0.54,18.5
			c0.18,14.3-1.17,26.55-4.02,36.74c-0.18,0.36-0.36,0.67-0.54,0.94c-0.18,0.27-0.18,0.58,0,0.94c-1.25,4.11-2.59,7.69-4.02,10.73
			c-1.79,0-2.68,0.63-2.68,1.88c0.71,0.18,1.07,0.54,1.07,1.07c-2.51,4.83-5.63,9.12-9.39,12.87c-0.54-0.36-0.98-0.8-1.34-1.34
			c-0.18,1.25-0.09,2.06,0.27,2.41c-1.79,1.79-3.58,3.31-5.36,4.56h-1.61v1.07c-5.72,3.93-12.11,6.75-19.17,8.45
			c-7.06,1.7-14.71,2.64-22.93,2.82h-2.14c-0.72-1.43-1.43-2.64-2.15-3.62c-0.72-0.98-1.52-1.29-2.41-0.94
			c0.36,0.72,0.8,1.43,1.34,2.15c0.54,0.71,0.98,1.52,1.34,2.41l-8.58,0.27c0-2.15-0.36-3.89-1.07-5.23
			C588.5,373.11,587.6,371.9,586.53,370.83z M541.75,229.79c1.07,0.36,2.1,0.8,3.08,1.34c0.98,0.54,2.19,0.72,3.62,0.54
			c-1.25-2.5-3.13-4.11-5.63-4.83C542.82,227.73,542.46,228.71,541.75,229.79z M547.65,348.57c0.36-0.36,0.71-1.38,1.07-3.08
			c0.36-1.7,0-2.64-1.07-2.82c-0.18,0.72-0.45,1.17-0.8,1.34c-0.36,0.18-0.45,0.72-0.27,1.61c-0.54,0-0.9-0.13-1.07-0.4
			c-0.18-0.27-0.45-0.49-0.8-0.67C544.34,347.41,545.32,348.75,547.65,348.57z M544.97,252.31c0.89,0.72,1.52,1.17,1.88,1.34
			c0.36,0.18,1.25,0,2.68-0.54c0.36-1.97-0.27-2.86-1.88-2.68C546.04,250.61,545.14,251.24,544.97,252.31z M550.6,260.89
			c0-1.25-0.31-2.1-0.94-2.55c-0.63-0.44-1.3-0.85-2.01-1.21c0.18,0.72,0.13,1.16-0.13,1.34c-0.27,0.18-0.58,0.31-0.94,0.4
			c-0.36,0.09-0.72,0.27-1.07,0.54c-0.36,0.27-0.36,0.76,0,1.48H550.6z M547.65,213.16c4.83-0.54,8.49-1.74,10.99-3.62
			c2.5-1.88,4.29-4.51,5.36-7.91c-1.43-0.36-2.41-0.27-2.95,0.27s-1.16,1.07-1.88,1.61c0-1.07-0.27-2.05-0.8-2.95
			c1.79,0,2.68-0.27,2.68-0.8c-0.54-0.71-1.61-1.11-3.22-1.21c-1.61-0.09-2.41,0.58-2.41,2.01c1.43,0.72,2.41,1.34,2.95,1.88
			c-0.54,0.36-1.47,0.8-2.82,1.34c-1.34,0.54-1.74,2.06-1.21,4.56c-0.9-0.18-1.52-0.04-1.88,0.4c-0.36,0.45-0.98,0.67-1.88,0.67
			c-0.54-0.36-0.76-0.76-0.67-1.21c0.09-0.44,0.13-0.89,0.13-1.34c0-0.44-0.13-0.8-0.4-1.07c-0.27-0.27-0.94-0.4-2.01-0.4
			c0.89,1.61,1.16,2.91,0.8,3.89c-0.36,0.98-0.85,1.83-1.47,2.55c-0.63,0.72-1.12,1.3-1.47,1.74c-0.36,0.45,0,1.03,1.07,1.74
			c0.18-0.36,0.27-0.8,0.27-1.34S547.11,213.16,547.65,213.16z M550.6,293.07c-0.54-1.25-0.9-2.59-1.07-4.02
			c-0.18-1.43-1.16-2.05-2.95-1.88C546.75,290.03,548.09,292,550.6,293.07z M547.65,333.02c0.71,0.72,1.92,0.94,3.62,0.67
			c1.7-0.27,2.72-0.49,3.08-0.67c-1.97-1.96-3.58-2.95-4.83-2.95c-0.18,0.72-0.49,1.21-0.94,1.47
			C548.14,331.81,547.83,332.31,547.65,333.02z M554.35,271.62c-0.9,0.18-1.79,0.63-2.68,1.34c-0.9,0.72-1.57,1.57-2.01,2.55
			c-0.45,0.98-0.63,1.92-0.54,2.82c0.09,0.9,0.58,1.61,1.47,2.15c-0.36-0.89,0.27-1.34,1.88-1.34c1.61,0,1.92,0.76,0.94,2.28
			c-0.98,1.52-0.67,2.46,0.94,2.82c0-0.71,0.22-1.25,0.67-1.61c0.44-0.36,1.21-0.8,2.28-1.34c1.07-0.54,1.7-1.16,1.88-1.88
			c-1.61-0.18-2.41-0.54-2.41-1.07s0.18-1.16,0.54-1.88c0.36-0.71,0.54-1.34,0.54-1.88s-0.8-0.89-2.41-1.07
			c-0.18,0.9-0.23,1.74-0.13,2.55c0.09,0.8-0.23,1.3-0.94,1.47h-1.88c-0.36-1.78-0.23-2.99,0.4-3.62
			C553.5,273.27,553.99,272.51,554.35,271.62z M549.53,199.75c-0.18,0.54-0.23,1.21-0.13,2.01c0.09,0.8,0.22,1.52,0.4,2.15
			c0.18,0.63,0.4,1.07,0.67,1.34c0.27,0.27,0.58,0.05,0.94-0.67c-0.54-0.71-0.49-1.47,0.13-2.28c0.62-0.8,0.94-1.65,0.94-2.55
			H549.53z M556.23,231.66c-0.36-0.36-1.34-0.71-2.95-1.07c-1.61-0.36-2.5,0-2.68,1.07c0.71-0.36,1.34-0.44,1.88-0.27
			c0.54,0.18,1.07,0.4,1.61,0.67s0.98,0.45,1.34,0.54C555.78,232.69,556.05,232.38,556.23,231.66z M550.6,337.85
			c0.71,0,1.56-0.09,2.55-0.27c0.98-0.18,1.83-0.36,2.55-0.54c0.71-0.18,0.62-0.27-0.27-0.27c-0.9-0.18-1.61-0.58-2.15-1.21
			c-0.54-0.62-1.43-0.85-2.68-0.67V337.85z M550.6,355.28c0.36,2.33,0.98,3.62,1.88,3.89c0.89,0.27,1.61,0.09,2.14-0.54
			c0.54-0.62,0.58-1.34,0.13-2.14C554.31,355.68,552.92,355.28,550.6,355.28z M551.4,256.06c-0.54,0.9-0.4,1.79,0.4,2.68
			c0.8,0.9,1.29,0.63,1.47-0.8c-0.54,0-0.85-0.27-0.94-0.8C552.25,256.6,551.94,256.25,551.4,256.06z M553.28,344.55
			c-1.97,2.33-1.61,3.93,1.07,4.83c-0.36-1.43-0.49-2.46-0.4-3.08C554.04,345.67,553.82,345.09,553.28,344.55z M552.48,323.1
			c-0.36,1.61-0.09,3.22,0.8,4.83c0.89,1.61,1.88,1.7,2.95,0.27c-0.72-0.89-1.3-1.83-1.74-2.82
			C554.04,324.4,553.37,323.64,552.48,323.1z M555.43,296.02c-1.25-0.71-2.06-0.94-2.41-0.67c-0.36,0.27-0.45,0.58-0.27,0.94
			c0.18,0.36,0.54,0.63,1.07,0.8C554.35,297.27,554.89,296.91,555.43,296.02z M556.23,262.77c-0.72,0.54-1.12,1.12-1.21,1.74
			c-0.09,0.63-0.09,1.21,0,1.74c0.09,0.54,0.13,1.17,0.13,1.88c0,0.72-0.27,1.52-0.8,2.41c1.25,0,2.05-0.31,2.41-0.94
			c0.36-0.62,0.49-1.38,0.4-2.28c-0.09-0.89-0.27-1.78-0.54-2.68C556.36,263.75,556.23,263.13,556.23,262.77z M559.18,250.17
			c-0.9,0.18-1.88,0.23-2.95,0.13c-1.07-0.09-1.34,0.58-0.8,2.01c1.43,0,2.19-0.22,2.28-0.67c0.09-0.44,0.58-0.22,1.47,0.67
			c0.54-1.25,0.98-2.15,1.34-2.68c0.36-0.54,0.49-0.94,0.4-1.21c-0.09-0.27-0.67-0.31-1.74-0.13V250.17z M556.23,372.71
			c1.25-0.54,2.14-0.62,2.68-0.27c0.54,0.36,0.98,0.18,1.34-0.54c-1.43-0.36-2.28-1.16-2.55-2.41c-0.27-1.25-1.03-2.05-2.28-2.41
			c-0.36,1.43-0.31,2.46,0.13,3.08C556,370.79,556.23,371.63,556.23,372.71z M560.25,363.05c-0.18-1.25-0.36-2.37-0.54-3.35
			c-0.18-0.98-0.63-1.83-1.34-2.55c-0.18,0.9-0.49,1.43-0.94,1.61c-0.45,0.18-0.85,0.63-1.21,1.34c0.71-0.18,1.21-0.13,1.47,0.13
			c0.27,0.27,0.49,0.63,0.67,1.07c0.18,0.45,0.36,0.85,0.54,1.21C559.09,362.88,559.54,363.05,560.25,363.05z M557.3,228.71
			c0.18,0.9,0.18,1.74,0,2.55c-0.18,0.8-0.36,1.47-0.54,2.01c-0.18,0.54-0.18,1.03,0,1.48c0.18,0.45,0.71,0.76,1.61,0.94
			c-0.36-0.89-0.4-1.74-0.13-2.55c0.27-0.8,0.44-1.48,0.54-2.01c0.09-0.54,0.09-1.03,0-1.47
			C558.69,229.21,558.2,228.89,557.3,228.71z M559.18,334.9c0-0.71,0.36-1.07,1.07-1.07c-0.18-1.61-0.8-2.23-1.88-1.88
			C558.38,333.74,558.64,334.72,559.18,334.9z M566.15,291.19c-1.79,0.54-3.08,0.58-3.89,0.13c-0.8-0.44-1.83-0.22-3.08,0.67
			c0.89,0,1.29,0.18,1.21,0.54c-0.09,0.36-0.27,0.72-0.54,1.07c-0.27,0.36-0.45,0.67-0.54,0.94c-0.09,0.27,0.22,0.4,0.94,0.4
			c0.71-1.79,1.83-2.64,3.35-2.55c1.52,0.09,2.63,0.94,3.35,2.55c0.18-0.89,0.09-1.52-0.27-1.88
			C566.33,292.71,566.15,292.09,566.15,291.19z M559.18,296.02c0.71,2.15,2.23,4.11,4.56,5.9c2.32,1.79,4.11,2.68,5.36,2.68
			c-1.79-1.43-3.35-2.99-4.69-4.69C563.07,298.21,561.33,296.91,559.18,296.02z M563.2,371.9c0.71-0.36,0.85-0.98,0.4-1.88
			c-0.45-0.89-0.31-1.88,0.4-2.95c-0.72,0-1.48-0.04-2.28-0.13c-0.8-0.09-1.3,0.23-1.47,0.94c1.07,0,1.65,0.27,1.74,0.8
			c0.09,0.54,0.04,1.07-0.13,1.61c-0.18,0.54-0.27,0.99-0.27,1.34C561.59,371.99,562.13,372.08,563.2,371.9z M569.1,264.91
			c-1.07,0.36-1.88,0.5-2.41,0.4c-0.54-0.09-1.03-0.22-1.47-0.4c-0.45-0.18-0.94-0.31-1.47-0.4c-0.54-0.09-1.43,0.05-2.68,0.4
			c-0.18,0.9-0.23,2.19-0.13,3.89c0.09,1.7,0.36,3.31,0.8,4.83c0.44,1.52,1.07,2.73,1.88,3.62c0.8,0.9,1.92,0.98,3.35,0.27
			c-1.43-0.54-2.41-1.52-2.95-2.95c3.39-1.79,5.99-3.75,7.78-5.9c-0.9-0.18-1.92-0.36-3.08-0.54
			C567.53,267.96,567.67,266.88,569.1,264.91z M562.13,321.22c-0.18,1.25,0.18,2.01,1.07,2.28c0.89,0.27,1.52,0.85,1.88,1.74v-4.02
			H562.13z M563.2,354.21c0-0.18,0.18-0.44,0.54-0.8c0.36-0.36,0.67-0.71,0.94-1.07c0.27-0.36,0.4-0.67,0.4-0.94
			c0-0.27-0.36-0.58-1.07-0.94c0.18,0.72-0.23,1.47-1.21,2.28C561.82,353.53,561.95,354.03,563.2,354.21z M566.15,281.27
			c0,0.54-0.45,1.34-1.34,2.41c-0.9,1.07-1.43,1.83-1.61,2.28c-0.18,0.45,0.09,0.85,0.8,1.21c0-0.36,0.27-0.76,0.8-1.21
			c0.54-0.44,1.03-0.94,1.48-1.48c0.44-0.54,0.71-1.07,0.8-1.61C567.18,282.34,566.86,281.81,566.15,281.27z M565.08,271.62h-1.88
			v-1.88h1.88V271.62z M569.1,239.44c-1.07,0.9-2.28,2.28-3.62,4.16s-1.83,3.08-1.47,3.62c0.89-1.07,2.05-2.01,3.49-2.82
			C568.92,243.6,569.46,241.95,569.1,239.44z M569.1,324.17c-0.36,0.9-1.07,1.39-2.15,1.47c-1.07,0.09-1.34,0.94-0.8,2.55
			c1.61-0.18,2.72,0,3.35,0.54c0.62,0.54,1.16,1.25,1.61,2.14c0.44,0.9,0.89,1.74,1.34,2.55c0.44,0.8,1.21,1.3,2.28,1.47
			c0.71-0.89,0.98-2.05,0.8-3.49c-0.18-1.43-0.72-1.61-1.61-0.54c0.36,0,0.58,0.31,0.67,0.94c0.09,0.63-0.13,1.03-0.67,1.21
			c-1.07-1.43-1.92-2.95-2.55-4.56C570.75,326.85,569.99,325.43,569.1,324.17z M566.15,305.67c-0.36,2.86,0.62,4.2,2.95,4.02
			c0-1.25-0.31-2.15-0.94-2.68C567.53,306.48,566.86,306.03,566.15,305.67z M566.15,347.5c0.71-0.18,1.29-0.04,1.74,0.4
			c0.44,0.45,0.85,0.31,1.21-0.4c-0.72,0-1.12-0.54-1.21-1.61c-0.09-1.07-0.67-1.52-1.74-1.34V347.5z M569.1,280.47
			c1.43-0.36,2.37-1.21,2.82-2.55c0.44-1.34,1.11-2.46,2.01-3.35c0,0.72,0.27,1.07,0.8,1.07c0.36-1.61,0.18-2.72-0.54-3.35
			c-0.72-0.62-1.52-1.21-2.41-1.74c0.18,1.43,0.22,2.37,0.13,2.82c-0.09,0.45-0.36,0.67-0.8,0.67c-0.45,0-0.94-0.04-1.47-0.13
			c-0.54-0.09-1.07,0.13-1.61,0.67c-0.36,1.61-0.18,2.59,0.54,2.95c0.71,0.36,1.16,0.99,1.34,1.88c-0.54,0-1.03,0.09-1.47,0.27
			C567.98,279.84,568.2,280.11,569.1,280.47z M569.91,297.89v-1.88h-1.88v1.88H569.91z M568.03,342.67c0.89,0,1.34,0.4,1.34,1.21
			c0,0.8,0.54,1.03,1.61,0.67v-2.95c-0.72,0.18-1.39,0.27-2.01,0.27C568.34,341.87,568.03,342.14,568.03,342.67z M572.86,377.8
			c0.36-0.36,0.4-1.07,0.13-2.15s-0.67-2.05-1.21-2.95c-0.54-0.89-1.16-1.43-1.88-1.61c-0.72-0.18-1.34,0.36-1.88,1.61
			c0.71,0,1.25,0.23,1.61,0.67c0.36,0.45,0.67,0.98,0.94,1.61c0.27,0.63,0.54,1.21,0.8,1.74
			C571.65,377.26,572.14,377.62,572.86,377.8z M572.86,355.28c-0.18-1.43-0.76-2.32-1.74-2.68c-0.98-0.36-1.66-1.07-2.01-2.14
			c-0.36,2.5,0.27,4.11,1.88,4.83C571.15,354.57,571.78,354.57,572.86,355.28z M571.78,224.96c0.36-0.54,0.4-0.98,0.13-1.34
			c-0.27-0.36-0.63-0.62-1.07-0.8c-0.45-0.18-0.9-0.18-1.34,0c-0.45,0.18-0.58,0.54-0.4,1.07c0.71,0.36,0.98,0.72,0.8,1.07H571.78z
			 M575.8,262.77c-0.9-0.89-2.01-1.16-3.35-0.8c-1.34,0.36-2.19,0.98-2.55,1.88c0.89-0.36,2.05-0.36,3.49,0
			C574.82,264.2,575.62,263.84,575.8,262.77z M570.98,294.95c0.71,0.18,1.21,0.49,1.47,0.94c0.27,0.45,0.76,0.76,1.47,0.94
			c-0.18-1.07,0.09-1.96,0.8-2.68c-0.72,0-1.47-0.04-2.28-0.13C571.65,293.92,571.15,294.23,570.98,294.95z M577.68,301.92
			c-1.43-0.36-2.55-1.03-3.35-2.01c-0.8-0.98-1.92-1.65-3.35-2.01v4.83c0.54-0.18,1.21-0.13,2.01,0.13s1.56,0.54,2.28,0.8
			c0.71,0.27,1.29,0.31,1.74,0.13C577.46,303.62,577.68,302.99,577.68,301.92z M583.58,312.38c-1.61,0.54-3,0.54-4.16,0
			c-1.17-0.54-2.24-1.07-3.22-1.61c-0.98-0.54-1.88-0.85-2.68-0.94c-0.8-0.09-1.66,0.49-2.55,1.74c1.96-0.36,3.35-0.18,4.16,0.54
			c0.8,0.72,1.65,1.52,2.55,2.41c0.18-0.71,1.21-1.07,3.08-1.07s3.12-0.13,3.75-0.4c0.62-0.27,0.67-1.11,0.13-2.55
			C582.68,310.5,582.33,311.13,583.58,312.38z M576.88,227.91c0.18-1.25-0.09-2.55-0.8-3.89c-0.72-1.34-1.43-1.38-2.15-0.13
			c0.54,0,0.8,0.58,0.8,1.74c0,1.17,0.09,1.92,0.27,2.28C575.18,228.27,575.8,228.27,576.88,227.91z M573.93,377.8
			c0,0.54,0.27,0.85,0.8,0.94c0.54,0.09,1.21,0.09,2.01,0c0.8-0.09,2.46-0.4,4.96-0.94c-1.43-0.18-2.77-0.71-4.02-1.61
			c-1.25-0.89-2.24-0.71-2.95,0.54c0.89,0,1.25,0.36,1.07,1.07H573.93z M585.46,341.6c0.18,0.9,0.71,1.52,1.61,1.88v0.54h1.07
			c0.36,0.18,0.58,0.27,0.67,0.27c0.09,0,0.31,0.09,0.67,0.27l0.27-0.54h4.29c0.89,1.97,1.79,3.8,2.68,5.5
			c0.89,1.7,1.07,3.26,0.54,4.69c-1.07,0.36-1.7,0.36-1.88,0c-0.18-0.36-0.27-1.07-0.27-2.15s-0.27-1.61-0.8-1.61
			c-0.36,1.07-0.54,2.14-0.54,3.22c0.18,1.07,0.94,2.33,2.28,3.75c1.34,1.43,2.37,3.31,3.08,5.63c-0.36-1.79-0.36-3.62,0-5.5
			c0.36-1.88,0.62-3.62,0.8-5.23c0.18-1.61,0.04-2.86-0.4-3.75c-0.45-0.89-1.57-1.25-3.35-1.07c0.36-0.71,0.94-1.21,1.74-1.47
			c0.8-0.27,1.21-1.03,1.21-2.28c4.11-0.18,7.78-0.85,10.99-2.01c3.22-1.16,5.99-3.17,8.31-6.03c2.32-2.86,4.06-6.75,5.23-11.66
			c1.16-4.92,1.83-11.3,2.01-19.17c0.36,0,0.62-0.09,0.8-0.27c-0.18-0.36-0.27-0.67-0.27-0.94c0-0.27-0.18-0.49-0.54-0.67v-3.22
			l-0.54-23.6c-0.18-13.23-1.61-22.93-4.29-29.09c-2.68-6.17-6.44-10.23-11.26-12.2l0.27-0.27c-0.36-0.36-0.63-0.85-0.8-1.47
			c-0.18-0.62-0.31-1.21-0.4-1.74c-0.09-0.54-0.36-0.98-0.8-1.34c-0.45-0.36-1.12-0.44-2.01-0.27c-0.54,1.43,0.44,3.04,2.95,4.83
			c-1.97-0.89-4.07-1.43-6.3-1.61c-2.24-0.18-4.69-0.27-7.37-0.27h-10.19l1.61,80.71c-0.9,0.36-1.52,0.72-1.88,1.07
			c0.54,1.79,0.94,3.49,1.21,5.09c0.27,1.61,0.58,3.22,0.94,4.83v7.24c-0.9-2.14-1.61-4.47-2.15-6.97c-0.54-2.5-1.52-4.65-2.95-6.44
			c-0.36,0.9-0.36,1.97,0,3.22c0.36,1.25,0,1.79-1.07,1.61c-1.43-0.54-2.37-1.52-2.82-2.95c-0.45-1.43-1.12-2.68-2.01-3.75
			c0,2.15,0.4,3.89,1.21,5.23c0.8,1.34,2.28,3.18,4.42,5.5c2.15,2.33,3.49,4.29,4.02,5.9c-1.97,1.43-3.58,3.04-4.83,4.83
			c0.36,0,0.76,0.05,1.21,0.13c0.44,0.09,0.67,0.31,0.67,0.67c-0.72-0.18-1.57,0.05-2.55,0.67c-0.98,0.63-0.76,1.12,0.67,1.47
			c0.36-0.71,0.54-0.67,0.54,0.13s0.09,1.57,0.27,2.28c0.18,0.72,0.54,1.17,1.07,1.34c0.36-0.89,0.67-1.03,0.94-0.4
			c0.27,0.63,0.67,1.12,1.21,1.47c0.54-0.36,0.76-0.71,0.67-1.07c-0.09-0.36-0.23-0.71-0.4-1.07c-0.18-0.36-0.31-0.67-0.4-0.94
			C584.43,342.27,584.74,341.96,585.46,341.6z M579.56,330.07c-0.72,1.97-1.57,3.62-2.55,4.96c-0.99,1.34-1.03,3.26-0.13,5.77
			c1.61-0.89,2.72-2.37,3.35-4.42c0.62-2.05,1.74-3.53,3.35-4.42c-0.9,0-1.43-0.4-1.61-1.21
			C581.79,329.94,580.99,329.72,579.56,330.07z M579.56,284.22c-0.54,0.18-1.12,0.27-1.74,0.27c-0.63,0-0.94,0.27-0.94,0.8
			c0.71,0.18,1.21,0.49,1.48,0.94c0.27,0.45,0.67,0.76,1.21,0.94V284.22z M581.17,311.57c0-2.32-0.54-3.31-1.61-2.95v1.88
			C580.09,310.5,580.63,310.86,581.17,311.57z M582.51,218.26c-0.9,0.9-1.16,2.77-0.8,5.63c1.43-0.36,2.82-0.58,4.16-0.67
			c1.34-0.09,1.83-1.11,1.47-3.08c-1.43,0.54-2.28,0.8-2.55,0.8c-0.27,0-0.4-0.18-0.4-0.54c0-0.36-0.09-0.76-0.27-1.21
			C583.94,218.75,583.4,218.44,582.51,218.26z M581.7,286.37c-0.36,2.14,0.62,3.04,2.95,2.68v-2.68H581.7z M584.65,339.73
			c0.71-1.25,1.16-2.1,1.34-2.55c0.18-0.44,0.54-1.03,1.07-1.74v3.75C586.53,340.08,585.73,340.26,584.65,339.73z M596.18,360.1
			c-1.07-0.18-1.92-0.09-2.55,0.27c-0.63,0.36-1.21,0.76-1.74,1.21c-0.54,0.45-1.12,0.85-1.74,1.21c-0.63,0.36-1.47,0.45-2.55,0.27
			c-0.18-0.71-0.54-0.98-1.07-0.8l0.27,1.07c1.78,1.25,2.95,3.13,3.49,5.63c0.36-2.32,1.21-3.93,2.55-4.83
			C594.17,363.23,595.29,361.89,596.18,360.1z M591.36,352.33c0.18,0.9,0.13,1.43-0.13,1.61c-0.27,0.18-0.58,0.31-0.94,0.4
			c-0.36,0.09-0.67,0.27-0.94,0.54c-0.27,0.27-0.23,0.76,0.13,1.47c1.96,0.36,3.08-0.04,3.35-1.21
			C593.1,353.98,592.61,353.04,591.36,352.33z M599.13,371.9c0.89-0.89,1.03-1.83,0.4-2.82c-0.63-0.98-1.12-2.01-1.47-3.08h-4.83
			c0.36,1.79,1.07,3.08,2.14,3.89C596.45,370.7,597.7,371.37,599.13,371.9z M597.52,344.02c-0.36,0.18-0.58,0.36-0.67,0.54
			c-0.09,0.18-0.31,0.18-0.67,0v-0.54H597.52z M603.96,376.73c0.18-0.54,0.44-1.43,0.8-2.68c0.36-1.25,0.58-2.46,0.67-3.62
			c0.09-1.16,0.04-2.19-0.13-3.08c-0.18-0.89-0.63-1.34-1.34-1.34c0.36,0.9,0.4,1.43,0.13,1.61c-0.27,0.18-0.63,0.27-1.07,0.27
			c-0.45,0-0.9,0.05-1.34,0.13c-0.45,0.09-0.67,0.4-0.67,0.94c0.54,0.9,0.8,2.33,0.8,4.29
			C601.81,375.21,602.53,376.37,603.96,376.73z M602.08,360.1c-0.9,0.9-0.99,1.97-0.27,3.22c0.71,1.25,1.79,1.79,3.22,1.61
			C604.67,362.43,603.69,360.82,602.08,360.1z M606.91,219.06c0,3.04,0.09,4.65,0.27,4.83c0.18,0.18,0.44-0.09,0.8-0.8
			c0-1.78-0.05-2.99-0.13-3.62c-0.09-0.62-0.23-1.03-0.4-1.21C607.27,218.08,607.08,218.35,606.91,219.06z M607.98,366
			c1.79,0.9,3.71,1.39,5.77,1.47c2.05,0.09,3.98-0.04,5.76-0.4c-0.9-0.18-2.06-0.36-3.49-0.54c-1.43-0.18-2.77-0.31-4.02-0.4
			C610.75,366.05,609.41,366,607.98,366z M609.86,376.73c0.71,0.36,1.21,0.36,1.48,0c0.27-0.36,0.4-0.8,0.4-1.34
			c0-0.54-0.13-1.03-0.4-1.47c-0.27-0.44-0.76-0.49-1.48-0.13V376.73z M611.74,229.79c0-0.71-0.27-1.07-0.8-1.07
			c0,1.43,0.36,2.37,1.07,2.82c0.71,0.45,1.34,0.58,1.88,0.4c0.54-0.18,0.76-0.49,0.67-0.94
			C614.46,230.55,613.52,230.15,611.74,229.79z M618.71,340.8c-1.61-0.36-2.64-0.4-3.08-0.13c-0.45,0.27-0.54,0.54-0.27,0.8
			c0.27,0.27,0.76,0.4,1.47,0.4C617.54,341.87,618.17,341.51,618.71,340.8z M628.36,230.86c-1.07-1.61-2.95-3.08-5.63-4.42
			c-2.68-1.34-5.01-1.48-6.97-0.4c1.79,1.25,3.13,1.92,4.02,2.01c0.89,0.09,1.78,1.3,2.68,3.62c1.43,0.36,2.41,0.23,2.95-0.4
			C625.95,230.64,626.93,230.5,628.36,230.86z M621.39,363.05h-2.68c-0.18,2.14,0.71,3.13,2.68,2.95V363.05z M625.41,374.85
			c0.54-1.43,0.85-3.22,0.94-5.36c0.09-2.15-0.58-3.31-2.01-3.49c-0.54,1.43-0.76,3.04-0.67,4.83
			C623.76,372.62,624.34,373.96,625.41,374.85z M626.48,277.52c-0.18,1.43-0.09,2.28,0.27,2.55c0.36,0.27,0.71,0.23,1.07-0.13
			c0.36-0.36,0.49-0.8,0.4-1.34C628.13,278.05,627.56,277.7,626.48,277.52z M627.29,236.49c0.54,0,1.11,0.05,1.74,0.13
			c0.62,0.09,1.21,0.13,1.74,0.13c0.54,0,0.94-0.13,1.21-0.4c0.27-0.27,0.31-0.85,0.13-1.74h-4.83V236.49z M630.24,279.39
			c0.54,1.25,0.98,1.84,1.34,1.74c0.36-0.09,0.54-0.4,0.54-0.94s-0.18-0.98-0.54-1.34C631.22,278.5,630.77,278.68,630.24,279.39z
			 M636.94,302.72c-0.9,0.36-2.06,0.36-3.49,0c-1.43-0.36-2.14,0-2.14,1.07c1.43-0.36,2.23-0.04,2.41,0.94
			c0.18,0.98,0.98,1.3,2.41,0.94c0-0.71,0.09-1.29,0.27-1.74C636.58,303.48,636.76,303.08,636.94,302.72z M634.26,234.61
			c0,0.54-0.13,0.9-0.4,1.07c-0.27,0.18-0.49,0.45-0.67,0.8c0.54,0,0.89,0.13,1.07,0.4c0.18,0.27,0.44,0.49,0.8,0.67
			c0-0.54,0.13-0.89,0.4-1.07c0.27-0.18,0.49-0.44,0.67-0.8c-0.54,0-0.9-0.13-1.07-0.4C634.88,235.02,634.62,234.79,634.26,234.61z
			 M634.26,240.51c-0.54,1.97-0.58,3.18-0.13,3.62c0.44,0.45,0.76,0.23,0.94-0.67c0-1.43-0.05-2.37-0.13-2.82
			c-0.09-0.44-0.18-0.76-0.27-0.94C634.57,239.53,634.44,239.8,634.26,240.51z M634.26,283.42c0.89,0.18,1.88,0.4,2.95,0.67
			c1.07,0.27,1.97-0.31,2.68-1.74c-0.9-0.18-1.97-0.4-3.22-0.67C635.42,281.4,634.62,281.99,634.26,283.42z M635.06,368.95
			c1.25,1.43,2.01,2.19,2.28,2.28c0.27,0.09,0.49-0.31,0.67-1.21c-0.36,0-0.8-0.36-1.34-1.07c-0.54-0.71-0.9-1.07-1.07-1.07
			C635.42,367.88,635.24,368.24,635.06,368.95z M636.14,214.23c0.71,0.18,1.07,0.4,1.07,0.67s-0.27,0.76-0.8,1.47
			c-0.54,0.72-0.63,1.34-0.27,1.88c1.07,0.36,1.74,0.18,2.01-0.54c0.27-0.71,0.31-1.52,0.13-2.41c-0.18-0.89-0.5-1.56-0.94-2.01
			C636.9,212.85,636.49,213.16,636.14,214.23z M650.62,308.62c-0.36-0.89-0.67-1.47-0.94-1.74c-0.27-0.27-0.58-0.49-0.94-0.67
			c-0.36-0.18-0.63-0.4-0.8-0.67c-0.18-0.27-0.27-0.85-0.27-1.74c-1.97,0.36-3.53,0.18-4.69-0.54c-1.17-0.71-2.82-0.89-4.96-0.54
			c-0.18,1.25,0.04,2.01,0.67,2.28c0.62,0.27,0.76,1.12,0.4,2.55c1.25-1.43,2.37-2.19,3.35-2.28c0.98-0.09,1.96,0.13,2.95,0.67
			c0.98,0.54,1.88,1.12,2.68,1.74C648.87,308.31,649.72,308.62,650.62,308.62z M638.01,337.85c1.43,0.18,2.28-0.22,2.55-1.21
			c0.27-0.98,0.76-1.92,1.47-2.82c-1.61-0.18-2.55,0.23-2.82,1.21C638.95,336.02,638.55,336.96,638.01,337.85z M640.96,296.82
			c-0.18-0.89-0.05-1.52,0.4-1.88c0.44-0.36,0.67-0.98,0.67-1.88c-0.9,0-1.88-0.36-2.95-1.07c-0.18,1.25-0.18,2.37,0,3.35
			C639.26,296.33,639.89,296.82,640.96,296.82z M644.99,223.08h1.88v-2.15h-1.88V223.08z M650.62,302.72
			c-0.72,0.72-0.98,1.47-0.8,2.28c0.18,0.8,1.16,1.03,2.95,0.67C652.76,304.24,652.04,303.26,650.62,302.72z M653.57,356.89
			c-0.36,1.43-0.31,2.24,0.13,2.41c0.44,0.18,0.8,0.13,1.07-0.13c0.27-0.27,0.4-0.67,0.4-1.21S654.64,357.07,653.57,356.89z
			 M658.39,305.67c-0.18-0.54-0.63-0.85-1.34-0.94c-0.72-0.09-1.43-0.09-2.14,0c-0.72,0.09-1.17,0.31-1.34,0.67
			c-0.18,0.36,0.18,0.8,1.07,1.34c0-0.71,0.44-1.07,1.34-1.07c0.89,0,1.43,0.36,1.61,1.07c-1.07-0.54-2.01-0.44-2.82,0.27
			c-0.8,0.72-0.58,1.25,0.67,1.61c0.18-0.89,0.76-1.34,1.74-1.34C658.17,307.28,658.57,306.74,658.39,305.67z M654.64,226.84
			c-0.18,1.43-0.09,2.28,0.27,2.55c0.36,0.27,0.71,0.27,1.07,0c0.36-0.27,0.49-0.71,0.4-1.34
			C656.29,227.42,655.71,227.02,654.64,226.84z M662.42,337.85c-1.43-0.18-2.51,0.27-3.22,1.34c-0.72,1.07-1.21,2.37-1.47,3.89
			c-0.27,1.52-0.4,3-0.4,4.42c0,1.43,0.09,2.41,0.27,2.95c0.36-1.43,0.76-2.86,1.21-4.29c0.44-1.43,1.65-1.96,3.62-1.61
			c-0.36-1.79-0.18-3.08,0.54-3.89c0.71-0.8,0.62-1.65-0.27-2.55c0.36,0,0.71-0.13,1.07-0.4c0.36-0.27,0.58-0.62,0.67-1.07
			c0.09-0.44,0.04-0.89-0.13-1.34c-0.18-0.44-0.54-0.58-1.07-0.4c0,0.72-0.18,1.17-0.54,1.34
			C662.32,336.42,662.23,336.96,662.42,337.85z M665.36,241.58c-1.25,0.36-2.33,0.72-3.22,1.07c-0.9,0.36-1.43,1.25-1.61,2.68
			c1.07-0.36,2.05-0.76,2.95-1.21C664.38,243.69,665,242.84,665.36,241.58z M668.31,327.12c-0.54,0.36-0.85,0.99-0.94,1.88
			c-0.09,0.9-0.76,1.25-2.01,1.07c-0.18,1.79,0.09,2.77,0.8,2.95c0-0.54,0.44-1.34,1.34-2.41c0.89-1.07,1.43-1.83,1.61-2.28
			C669.29,327.88,669.03,327.48,668.31,327.12z M669.12,298.97c-1.25,0-1.88,0.27-1.88,0.8c1.79-0.18,2.9-0.85,3.35-2.01
			c0.44-1.16,0.58-3.17,0.4-6.03c-0.18-2.86,0.18-4.65,1.07-5.36c-2.33,1.07-3.49,2.73-3.49,4.96
			C668.58,293.56,668.76,296.11,669.12,298.97z"/>
		<path d="M797.56,236.76c0-0.89-0.9-1.7-2.68-2.41c0,0.72-0.54,1.07-1.61,1.07v1.34l-19.04-0.54c1.07-0.54,1.7-1.34,1.88-2.41
			c-2.86,0.36-4.92,1.17-6.17,2.41h-4.02l-0.54,21.45c-0.18-0.18-0.27-0.54-0.27-1.07c-0.36,0.72-0.72,1.07-1.07,1.07
			c0,0.36-0.09,0.67-0.27,0.94c-0.18,0.27-0.36,0.58-0.54,0.94c0.54,0,1.25,0.27,2.15,0.8l-0.27,12.6
			c-0.72-0.36-1.43-0.44-2.14-0.27c-0.72,0.18-0.98,0.54-0.8,1.07c0.71,0,1.21,0.13,1.47,0.4c0.27,0.27,0.76,0.49,1.47,0.67
			l-1.34,72.67c-0.54-0.18-0.99-0.22-1.34-0.13c-0.36,0.09-0.63,0.13-0.8,0.13c0.89,0.18,1.61,0.54,2.15,1.07l-0.27,20.65
			c-0.54-0.89-0.72-1.52-0.54-1.88c-0.72,0.18-1.3,0.18-1.74,0c-0.45-0.18-0.76,0.09-0.94,0.8c0.89,0.18,1.38,0.54,1.47,1.07
			c0.09,0.54,0.09,1.07,0,1.61c-0.09,0.54-0.09,1.03,0,1.47c0.09,0.45,0.67,0.76,1.74,0.94v2.68c-1.25-0.18-2.19-0.18-2.82,0
			c-0.63,0.18-1.21,0.45-1.74,0.8l-30.84-0.8c-0.54-0.54-1.39-0.67-2.55-0.4c-1.17,0.27-2.19-0.22-3.08-1.48
			c-0.36,0.72-0.72,1.34-1.07,1.88h-1.34c-0.72-0.71-1.07-1.25-1.07-1.61l0.27-9.38c0.36-0.36,0.58-0.62,0.67-0.8
			c0.09-0.18,0.22-0.36,0.4-0.54c-0.36,0-0.72-0.18-1.07-0.54l0.8-52.82h0.27c0-0.71-0.09-1.25-0.27-1.61l0.27-5.63
			c0.18-0.54,0.36-1.11,0.54-1.74c0.18-0.62,0.44-1.12,0.8-1.48c-0.54,0-0.9,0.09-1.07,0.27l0.27-35.66c0.18,0,0.36,0.05,0.54,0.13
			c0.18,0.09,0.36,0.13,0.54,0.13c0-2.15-0.27-3.93-0.8-5.36l0.27-5.36c0.54,0.9,1.29,1.57,2.28,2.01c0.98,0.45,1.38,1.39,1.21,2.82
			c0.89-0.54,1.92-0.8,3.08-0.8c1.16,0,2.15,0.27,2.95,0.8c0.8,0.54,1.34,1.25,1.61,2.15c0.27,0.9-0.05,1.88-0.94,2.95
			c0.89,0.18,1.52,0.09,1.88-0.27c0.36-0.36,0.58-0.85,0.67-1.47c0.09-0.62,0.22-1.25,0.4-1.88c0.18-0.62,0.54-1.03,1.07-1.21
			c0.89,0,1.43,0.4,1.61,1.21c0.18,0.8,0.89,1.03,2.15,0.67c1.79-1.97,3.31-3.44,4.56-4.42c1.25-0.98,2.68-2.19,4.29-3.62
			c-0.9-0.18-1.43-0.67-1.61-1.47c-0.18-0.8-0.99-1.11-2.41-0.94c0,1.07-0.23,1.7-0.67,1.88c-0.45,0.18-1.39,0-2.82-0.54
			c-1.43-0.54-2.51-0.71-3.22-0.54c-0.18,0.72-0.09,1.3,0.27,1.74c0.36,0.45,0.71,0.8,1.07,1.07c0.36,0.27,0.54,0.45,0.54,0.54
			c0,0.09-0.36,0.23-1.07,0.4c-0.54-1.25-1.12-1.96-1.74-2.15c-0.63-0.18-1.25-0.13-1.88,0.13c-0.63,0.27-1.34,0.58-2.15,0.94
			c-0.8,0.36-1.65,0.45-2.55,0.27c0.71-0.89,0.94-1.83,0.67-2.82c-0.27-0.98-0.58-1.65-0.94-2.01c-0.36,0-0.8,0.54-1.34,1.61
			c-0.54,1.07-0.98,1.7-1.34,1.88c-0.36,0.18-0.63,0-0.8-0.54c0.89-1.07,1.29-1.96,1.21-2.68c-0.09-0.71-0.49-1.79-1.21-3.22
			c-1.07,0.18-1.97,0.31-2.68,0.4c-0.72,0.09-1.43,0.13-2.15,0.13v-2.15c0.36,0.18,0.76,0.05,1.21-0.4
			c0.44-0.44,0.13-1.03-0.94-1.74h-0.27v-7.24l-37.54-0.8c-0.54-0.36-0.63-0.71-0.27-1.07l0.27-2.15c0.36,0.36,0.58,0.76,0.67,1.21
			c0.09,0.45,0.31,0.85,0.67,1.21c1.96-0.71,3.35-0.98,4.16-0.8c0.8,0.18,2.01-0.09,3.62-0.8c0.18-0.89,0.18-1.61,0-2.15
			c-0.18-0.71-0.9-1.21-2.15-1.47c-1.25-0.27-2.41-0.85-3.49-1.74c-0.18,1.07-0.67,1.66-1.47,1.74c-0.8,0.09-1.48,0.31-2.01,0.67
			v-9.12c0.71-0.18,1.52-0.18,2.41,0c-0.18-1.25-0.98-2.05-2.41-2.41l0.27-4.83c0.71,0.36,1.25,0.45,1.61,0.27
			c0-0.54-0.13-1.16-0.4-1.88c-0.27-0.71-0.58-1.25-0.94-1.61v-0.27c1.07,0,2.23-0.09,3.49-0.27c1.25-0.18,2.23-0.62,2.95-1.34
			c-0.9-0.18-2.01-0.62-3.35-1.34c-1.34-0.71-2.46-0.98-3.35-0.8v-2.95c0.89-0.18,1.83-0.27,2.82-0.27c0.98,0,1.92-0.09,2.82-0.27
			c0-0.89-0.09-1.52-0.27-1.88h4.83c0.54,0.54,0.98,0.8,1.34,0.8v-0.8l15.82,0.27c-0.36,0.36-0.13,0.72,0.67,1.07
			c0.8,0.36,1.65,0,2.55-1.07l15.28,0.27c0,1.25,0.89,1.97,2.68,2.15l0.27-1.88l14.21,0.27c0.18,0.54,0.44,0.9,0.8,1.07
			c0.36,0.18,0.71-0.18,1.07-1.07l2.95-0.27c0,0.18-0.05,0.36-0.13,0.54c-0.09,0.18-0.13,0.36-0.13,0.54
			c0.36-0.18,0.67-0.36,0.94-0.54c0.27-0.18,0.58-0.36,0.94-0.54l12.87,0.54c0.36,0.36,0.44,0.85,0.27,1.47
			c-0.18,0.63-0.76,1.3-1.74,2.01c-0.98,0.72-2.06,1.3-3.22,1.74c-1.17,0.45-2.33,0.94-3.49,1.48c-1.17,0.54-2.1,1.34-2.82,2.41
			c0.36-1.25,0.22-2.68-0.4-4.29c-0.63-1.61-1.12-3.13-1.47-4.56c-0.54,0.72-1.03,1.39-1.48,2.01c-0.45,0.63-1.21,0.94-2.28,0.94
			c0,1.79-0.18,3.31-0.54,4.56c-0.36,1.25-0.58,2.41-0.67,3.49c-0.09,1.07-0.05,2.1,0.13,3.08c0.18,0.98,0.71,2.1,1.61,3.35
			c-0.9,0.54-1.7,0.67-2.41,0.4c-0.72-0.27-1.39-0.58-2.01-0.94c-0.63-0.36-1.43-0.67-2.41-0.94c-0.98-0.27-2.19-0.22-3.62,0.13
			c0.36,2.15,0.62,4.25,0.8,6.3c0.18,2.06-0.45,3.8-1.88,5.23l0.27-4.83c-1.43,0.36-2.37,0.23-2.82-0.4
			c-0.45-0.62-1.39-0.76-2.82-0.4c0,0.72,0.31,1.39,0.94,2.01c0.62,0.63,1.03,1.17,1.21,1.61c0.18,0.45,0.09,1.12-0.27,2.01
			c-0.9,0-1.61,0.23-2.14,0.67c-0.54,0.45-1.03,0.85-1.48,1.21c-0.45,0.36-0.98,0.63-1.61,0.8c-0.63,0.18-1.57,0.09-2.82-0.27
			c0.18,1.61-0.05,2.73-0.67,3.35c-0.63,0.63-0.67,1.83-0.13,3.62c1.43,0.36,2.46,1.07,3.08,2.15c0.62,1.07,1.21,2.19,1.74,3.35
			c0.54,1.17,1.16,2.28,1.88,3.35c0.71,1.07,1.88,1.7,3.49,1.88c0.18-0.71,0.62-1.25,1.34-1.61c0.71-0.36,1.47-0.71,2.28-1.07
			c0.8-0.36,1.61-0.85,2.41-1.47c0.8-0.62,1.38-1.56,1.74-2.82c-1.07,1.07-2.37,1.52-3.89,1.34c-1.52-0.18-2.95-0.58-4.29-1.21
			c-1.34-0.62-2.41-1.47-3.22-2.55c-0.8-1.07-1.03-2.05-0.67-2.95c0.18,0.9,0.76,1.74,1.74,2.55c0.98,0.8,2.1,1.39,3.35,1.74
			c1.25,0.36,2.46,0.4,3.62,0.13c1.16-0.27,2.01-1.11,2.55-2.55c-1.43,0.36-3.18,0.09-5.23-0.8c-2.06-0.89-3.53-2.23-4.42-4.02
			c1.61,0.18,2.95,0,4.02-0.54c1.07-0.54,2.05-1.16,2.95-1.88c0.89-0.71,1.83-1.38,2.82-2.01c0.98-0.62,2.28-0.94,3.89-0.94
			c0.54,0.54,0.89,1.34,1.07,2.41c0.18,1.07,0.98,1.43,2.41,1.07c1.07-1.25,1.43-2.41,1.07-3.49c-0.36-1.07-0.8-2.15-1.34-3.22
			c-0.54-1.07-0.9-2.15-1.07-3.22c-0.18-1.07,0.27-2.15,1.34-3.22c0,2.33,0.71,3.49,2.15,3.49c0.54-0.89,0.67-1.61,0.4-2.15
			c-0.27-0.54-0.67-1.07-1.21-1.61s-1.03-1.11-1.47-1.74c-0.45-0.62-0.58-1.56-0.4-2.82c0.89,0.36,1.29,0.8,1.21,1.34
			c-0.09,0.54,0.4,0.36,1.47-0.54c0.36-0.71,0.4-1.16,0.13-1.34c-0.27-0.18-0.58-0.31-0.94-0.4c-0.36-0.09-0.72-0.22-1.07-0.4
			c-0.36-0.18-0.36-0.62,0-1.34c0.71-0.18,1.29-0.36,1.74-0.54c0.44-0.18,0.85-0.36,1.21-0.54c-0.18,1.25-0.09,2.28,0.27,3.08
			c0.36,0.8,1.25,1.03,2.68,0.67c0.18-1.61,0.89-2.72,2.14-3.35c1.25-0.62,2.5-1.11,3.75-1.48c1.25-0.36,2.23-0.76,2.95-1.21
			c0.71-0.44,0.71-1.21,0-2.28c1.25,0,1.96,0.13,2.14,0.4c0.18,0.27,0.22,0.63,0.13,1.07c-0.09,0.45-0.13,0.9-0.13,1.34
			c0,0.45,0.44,0.76,1.34,0.94c0.36-0.54,0.89-1.16,1.61-1.88c0.71-0.71,1.07-1.25,1.07-1.61c-0.18-0.54-0.63-0.98-1.34-1.34
			c0,0.54-0.18,0.72-0.54,0.54c-0.36-0.18-0.76-0.44-1.21-0.8c-0.45-0.36-0.8-0.8-1.07-1.34s-0.31-0.98-0.13-1.34
			c0.71,0.18,1.61,0.54,2.68,1.07c0-0.18,0.04-0.4,0.13-0.67c0.09-0.27,0.13-0.58,0.13-0.94h1.07c0,0.9,0.13,1.88,0.4,2.95
			c0.27,1.07,0.76,1.88,1.47,2.41l-0.27-2.68c2.15,0.18,3.31-0.36,3.49-1.61c-0.18-0.18-0.31-0.36-0.4-0.54
			c-0.09-0.18-0.23-0.36-0.4-0.54l20.92,0.27c-0.18,0.72-0.31,1.39-0.4,2.01c-0.09,0.63-0.49,1.21-1.21,1.74
			c-0.18-0.89-0.8-1.25-1.88-1.07c-1.07,0.18-1.79-0.09-2.14-0.8c0.36,1.79,0.09,3.31-0.8,4.56c1.43,1.43,2.46,2.06,3.08,1.88
			c0.62-0.18,2.19-0.44,4.69-0.8c0-2.5,0.22-4.06,0.67-4.69c0.44-0.62,0.49-1.47,0.13-2.55h4.83l-0.27,1.34
			c-0.36-0.71-0.98-0.89-1.88-0.54c-0.18,0.18-0.36,0.54-0.54,1.07c-0.18,0.54-0.27,1.12-0.27,1.74c0,0.63,0.09,1.16,0.27,1.61
			c0.18,0.45,0.71,0.49,1.61,0.13c0.36,0.18,0.71-0.18,1.07-1.07l-0.54,26.28c0.54,1.61,0.27,2.95-0.8,4.02H797.56z M694.06,218.26
			c-0.9-0.36-2.14-0.67-3.75-0.94c-1.61-0.27-2.59,0.31-2.95,1.74c0.89,0.9,2.14,1.21,3.75,0.94
			C692.71,219.73,693.7,219.15,694.06,218.26z M690.57,211.55c0.18,0.9,0.13,2.01-0.13,3.35c-0.27,1.34,0.4,1.74,2.01,1.21
			c-0.54-0.54-0.72-1.03-0.54-1.47c0.18-0.44,0.31-0.89,0.4-1.34c0.09-0.44,0.09-0.85,0-1.21
			C692.22,211.73,691.64,211.55,690.57,211.55z M695.13,230.59c1.43,0.54,2.86,0.58,4.29,0.13c1.43-0.44,2.5-1.29,3.22-2.55
			c-2.33-0.71-3.85-0.62-4.56,0.27c-0.72,0.9-1.61,1.52-2.68,1.88c0.18-1.78-0.23-3.08-1.21-3.89c-0.99-0.8-2.19-1.29-3.62-1.48
			c0.36,1.43,0.94,2.55,1.74,3.35C693.12,229.12,694.06,229.88,695.13,230.59z M694.32,213.43c0.89,0.18,0.89,0.9,0,2.15
			c1.78-0.18,3.04,0.09,3.75,0.8v-3.75C695.93,212.63,694.68,212.89,694.32,213.43z M697.27,224.96c0.18-1.25,0.4-2.1,0.67-2.55
			c0.27-0.44-0.23-0.94-1.48-1.47c0,0.72-0.31,1.12-0.94,1.21c-0.63,0.09-1.03,0.4-1.21,0.94c0.89,0,1.29,0.4,1.21,1.21
			C695.44,225.09,696.02,225.32,697.27,224.96z M699.96,203.78c0.89-0.89,0.67-1.43-0.67-1.61c-1.34-0.18-2.01,0.18-2.01,1.07
			c0.71,0,0.98,0.18,0.8,0.54H699.96z M699.15,222.01v1.88h1.88v-1.88H699.15z M702.1,205.12c-0.72,0.72-1.07,2.1-1.07,4.16
			c0,2.06,0.98,2.91,2.95,2.55c0.18-0.18,0.31-0.62,0.4-1.34c0.09-0.71,0.09-1.47,0-2.28c-0.09-0.8-0.31-1.52-0.67-2.15
			C703.35,205.43,702.81,205.12,702.1,205.12z M703.98,223.35c0.71-0.89,0.94-2.23,0.67-4.02c-0.27-1.78-1.12-2.77-2.55-2.95
			C701.56,219.24,702.19,221.57,703.98,223.35z M707.73,216.38c0.18-1.25,0.18-2.32,0-3.22c-0.18-0.89-0.8-1.34-1.88-1.34
			C705.49,214.33,706.12,215.84,707.73,216.38z M710.68,221.21c0,1.61,0.89,2.33,2.68,2.15c-0.18-0.71-0.27-1.38-0.27-2.01
			c0-0.62-0.36-0.94-1.07-0.94c0.36,1.25,0.18,1.88-0.54,1.88C711.49,221.57,711.22,221.21,710.68,221.21z M718.72,234.88
			c0.36-1.61,1.16-2.72,2.41-3.35c1.25-0.62,2.14-1.38,2.68-2.28c-0.72-0.71-1.43-0.89-2.14-0.54c-0.72,0.36-1.39,0.94-2.01,1.74
			c-0.63,0.8-1.03,1.7-1.21,2.68C718.28,234.12,718.36,234.71,718.72,234.88z M721.41,364.66c-0.36,0.54-0.4,0.98-0.13,1.34
			c0.27,0.36,0.62,0.58,1.07,0.67c0.44,0.09,0.85,0.05,1.21-0.13c0.36-0.18,0.54-0.54,0.54-1.07c-0.54,0-0.9-0.18-1.07-0.54
			C722.83,364.57,722.3,364.49,721.41,364.66z M721.41,248.29c1.25,0.36,1.96,1.25,2.15,2.68c-1.07,0-1.88-0.09-2.41-0.27v-2.41
			H721.41z M723.28,268.94c-0.54,2.51,0.54,3.58,3.22,3.22c0.71-1.61,0.62-2.55-0.27-2.82
			C725.34,269.07,724.36,268.94,723.28,268.94z M724.09,223.35c1.07,0.54,2.1,0.4,3.08-0.4c0.98-0.8,1.92-1.03,2.82-0.67
			c-0.36-1.07-0.54-2.23-0.54-3.49c-0.9,0-1.88-0.36-2.95-1.07c0.18,1.43-0.09,2.37-0.8,2.82
			C724.98,220.98,724.44,221.92,724.09,223.35z M727.04,244.53c-0.18,1.25-0.09,2.15,0.27,2.68c0.36,0.72,0.89,1.07,1.61,1.07
			c-0.18-1.96-0.45-3.66-0.8-5.09c-0.36-1.43-1.25-2.59-2.68-3.49c-0.72,0.18-1.07,1.43-1.07,3.75c0.54,0.18,1.11,0.23,1.74,0.13
			C726.72,243.51,727.04,243.82,727.04,244.53z M725.96,373.24c1.61,0.18,2.95,0.45,4.02,0.8c1.07,0.36,2.05-0.09,2.95-1.34
			c-2.51-4.11-5.19-5.81-8.04-5.09c1.07,0,1.43,0.72,1.07,2.14C725.6,371.19,725.6,372.35,725.96,373.24z M725.43,323.64
			c-0.18,0.72-0.05,1.43,0.4,2.14c0.44,0.72,0.67,0.63,0.67-0.27c0.18-0.71,0.13-1.43-0.13-2.15
			C726.1,322.66,725.79,322.74,725.43,323.64z M728.38,289.31c-0.36-0.89-0.31-2.05,0.13-3.49c0.44-1.43,0.13-2.23-0.94-2.41
			c-0.36,1.07-0.72,2.24-1.07,3.49C726.14,288.15,726.77,288.96,728.38,289.31z M729.45,334.9c-0.18-0.71-0.18-1.61,0-2.68
			c0.18-1.07-0.45-1.34-1.88-0.8c-0.18,0.72-0.45,1.25-0.8,1.61c-0.36,0.36-0.45,0.98-0.27,1.88H729.45z M732.67,204.58
			c-0.9,0.36-2.01,0.54-3.35,0.54s-1.83,0.72-1.47,2.15c0.89-0.36,2.01-0.54,3.35-0.54S733.02,206.01,732.67,204.58z M730.79,322.56
			c0.54-1.25,0.71-2.1,0.54-2.55c-0.18-0.44-0.45-0.62-0.8-0.54c-0.36,0.09-0.63,0.45-0.8,1.07
			C729.54,321.18,729.89,321.85,730.79,322.56z M739.1,359.57c-1.07-1.78-1.52-2.86-1.34-3.22c0-0.54,0.22-1.11,0.67-1.74
			c0.44-0.62,0.8-1.29,1.07-2.01c0.27-0.71,0.36-1.25,0.27-1.61c-0.09-0.36-0.76-0.54-2.01-0.54c0.36,1.43,0.13,2.86-0.67,4.29
			c-0.8,1.43-1.52,2.82-2.15,4.16c-0.63,1.34-0.94,2.5-0.94,3.49c0,0.99,0.89,1.83,2.68,2.55c-0.36-0.71-0.18-1.56,0.54-2.55
			C737.94,361.4,738.57,360.46,739.1,359.57z M737.5,207.26c-1.07,0.36-1.79,1.03-2.15,2.01c-0.36,0.98-0.58,2.15-0.67,3.49
			c-0.09,1.34-0.09,2.73,0,4.16c0.09,1.43,0.04,2.77-0.13,4.02c0.54-0.36,1.03-0.44,1.47-0.27c0.44,0.18,0.89,0.4,1.34,0.67
			c0.44,0.27,0.8,0.45,1.07,0.54c0.27,0.09,0.49-0.22,0.67-0.94c-0.54-0.71-1.21-1.03-2.01-0.94c-0.8,0.09-1.12-0.58-0.94-2.01
			c3.75-1.61,7.68-1.88,11.8-0.8c0-1.07-0.23-1.7-0.67-1.88c-0.45-0.18-0.9-0.31-1.34-0.4c-0.45-0.09-0.8-0.31-1.07-0.67
			c-0.27-0.36-0.23-1.25,0.13-2.68c-1.07-0.18-1.88-0.13-2.41,0.13s-0.98,0.54-1.34,0.8c-0.36,0.27-0.76,0.4-1.21,0.4
			c-0.45,0-1.12-0.27-2.01-0.8c-0.36,1.25-0.4,2.15-0.13,2.68c0.27,0.54,0.04,0.98-0.67,1.34c-1.61-0.89-2.1-2.1-1.47-3.62
			C736.38,210.97,736.96,209.23,737.5,207.26z M739.37,209.41c-0.36,0.72-0.36,1.25,0,1.61c0.36,0.36,0.8,0.54,1.34,0.54
			s0.98-0.18,1.34-0.54c0.36-0.36,0.44-0.89,0.27-1.61H739.37z M742.86,368.68c2.15,1.07,3.8,1.61,4.96,1.61
			c1.16,0,2.72,0.18,4.69,0.54c-1.07-1.43-2.68-2.41-4.83-2.95C745.54,367.34,743.93,367.61,742.86,368.68z M761.36,261.16
			c-0.9-0.18-1.43-0.13-1.61,0.13c-0.18,0.27-0.45,0.76-0.8,1.48c-0.36,0.72-0.9,0.9-1.61,0.54c0.71-1.61,0.89-2.68,0.54-3.22
			c-0.36-0.54-0.45-1.79-0.27-3.75c-2.14-0.89-3.8-1.38-4.96-1.47c-1.17-0.09-2.28-1.12-3.35-3.08c-0.54,1.97-1.03,3.26-1.47,3.89
			c-0.45,0.63-0.23,1.12,0.67,1.48c-0.36,0-0.63,0.23-0.8,0.67c-0.18,0.45-0.36,1.21-0.54,2.28c-0.18,1.07-0.54,1.7-1.07,1.88
			c-0.72,0-1.16,0.36-1.34,1.07c1.07-0.54,2.15-0.85,3.22-0.94c1.07-0.09,2.01-0.13,2.82-0.13c0.8,0,1.48-0.18,2.01-0.54
			c0.54-0.36,0.8-1.16,0.8-2.41c0.71,0.36,1.29,0.94,1.74,1.74c0.44,0.8,0.89,1.52,1.34,2.15c0.44,0.63,0.98,1.21,1.61,1.74
			c0.62,0.54,1.56,0.72,2.82,0.54L761.36,261.16z M748.22,366c0-1.25-0.72-2.32-2.15-3.22c0,1.25-0.27,2.24-0.8,2.95L748.22,366z
			 M750.63,203.24c-2.33-0.36-3.58,0.18-3.75,1.61C748.84,204.67,750.1,204.14,750.63,203.24z M750.37,239.44
			c0,1.43-0.36,2.37-1.07,2.82c-0.72,0.45-1.34,1.03-1.88,1.74c1.61,0,2.86-0.27,3.75-0.8c0.89-0.54,0.71-1.16-0.54-1.88
			c1.43,0.36,2.82,0.58,4.16,0.67c1.34,0.09,2.46-0.76,3.35-2.55H750.37z M749.29,245.07c-0.36,0.36-0.8,1.21-1.34,2.55
			c-0.54,1.34-0.18,2.1,1.07,2.28c0.36-0.36,0.71-1.25,1.07-2.68C750.45,245.79,750.19,245.07,749.29,245.07z M749.29,256.87
			l0.8,0.54c-0.36,0.18-0.63,0.23-0.8,0.13C749.11,257.45,749.11,257.23,749.29,256.87z M752.24,232.2c0.18,0.9,0.13,2.01-0.13,3.35
			c-0.27,1.34,0.04,1.92,0.94,1.74c0.36-0.89,1.07-1.16,2.15-0.8C755.19,233.63,754.21,232.2,752.24,232.2z M755.19,342.41
			c-0.36,0.9,0.09,1.03,1.34,0.4c1.25-0.62,1.79-1.11,1.61-1.47c-0.54-0.36-1.16-0.31-1.88,0.13
			C755.55,341.92,755.19,342.23,755.19,342.41z M765.38,247.22c0-1.61-0.18-2.82-0.54-3.62c-0.36-0.8-0.67-1.48-0.94-2.01
			c-0.27-0.54-0.31-1.03-0.13-1.47c0.18-0.44,0.8-1.21,1.88-2.28c-1.43-0.36-2.28-0.27-2.55,0.27s-1.03,0.63-2.28,0.27
			c-0.36,2.51-0.05,4.38,0.94,5.63C762.74,245.25,763.95,246.32,765.38,247.22z M763.24,221.47c-0.18-1.25-0.98-2.32-2.41-3.22
			C760.82,219.69,761.63,220.76,763.24,221.47z M768.06,232.47c0.71,0.36,1.34,0.4,1.88,0.13s0.94-0.71,1.21-1.34
			c0.27-0.62,0.36-1.25,0.27-1.88c-0.09-0.62-0.4-1.03-0.94-1.21c-0.9,0.72-1.66,1.25-2.28,1.61
			C767.57,230.15,767.53,231.04,768.06,232.47z M788.71,217.72c1.61,0.72,2.99,1.61,4.16,2.68c1.16,1.07,2.64,1.88,4.42,2.41
			c-0.18-1.07,0.04-1.83,0.67-2.28c0.62-0.44,0.67-1.38,0.13-2.82c-2.86,1.43-4.87,1.21-6.03-0.67c-1.16-1.88-2.19-3.8-3.08-5.77
			c-1.97-0.89-3.22-1.21-3.75-0.94s-1.25,0.49-2.15,0.67c-0.54,0.36-0.94,0.27-1.21-0.27c-0.27-0.54-0.85-0.71-1.74-0.54
			c-0.72,0.36-1.43,0.85-2.15,1.47c-0.72,0.63-1.52,1.03-2.41,1.21c-0.54,0.18-1.03,0.18-1.47,0c-0.45-0.18-0.85-0.31-1.21-0.4
			c-0.36-0.09-0.67-0.04-0.94,0.13c-0.27,0.18-0.4,0.63-0.4,1.34c1.07,0.9,2.64,1.12,4.69,0.67c2.05-0.44,4.02-0.85,5.9-1.21
			c1.88-0.36,3.49-0.36,4.83,0C788.31,213.79,788.89,215.22,788.71,217.72z M783.35,208.07c-0.9,0.36-1.74,0.36-2.55,0
			c-0.8-0.36-1.57-0.76-2.28-1.21c-0.72-0.44-1.3-0.71-1.74-0.8c-0.45-0.09-0.76,0.23-0.94,0.94c0.54,0.18,1.07,0.49,1.61,0.94
			c0.54,0.45,1.16,0.8,1.88,1.07c0.71,0.27,1.38,0.4,2.01,0.4C781.96,209.41,782.63,208.96,783.35,208.07z M778.25,202.7
			c0,0.36-0.13,0.67-0.4,0.94c-0.27,0.27-0.49,0.58-0.67,0.94c0.71,0,1.21,0.18,1.48,0.54c0.27,0.36,0.85,0.45,1.74,0.27
			C780.22,204.14,779.5,203.24,778.25,202.7z M796.49,217.18c0.18-0.89-0.05-1.74-0.67-2.55c-0.63-0.8-1.34-1.43-2.15-1.88
			c-0.8-0.44-1.61-0.71-2.41-0.8c-0.8-0.09-1.3,0.05-1.47,0.4c1.25,0.9,2.46,1.7,3.62,2.41
			C794.56,215.49,795.59,216.29,796.49,217.18z M798.09,226.57c-0.18,0.9-0.4,1.84-0.67,2.82c-0.27,0.98-0.45,1.84-0.54,2.55
			c-0.09,0.72,0.09,1.17,0.54,1.34c0.44,0.18,1.21-0.09,2.28-0.8c-0.54,0-0.8-0.31-0.8-0.94c0-0.62,0.04-1.29,0.13-2.01
			c0.09-0.71,0.13-1.38,0.13-2.01C799.17,226.88,798.81,226.57,798.09,226.57z M797.29,212.63c0,2.86,0.89,5.01,2.68,6.44
			c0.89-1.43,1.16-2.86,0.8-4.29C800.42,213.34,799.26,212.63,797.29,212.63z"/>
	</g>
	<g>
		<path d="M792.48,329.99c0-8.8,2.44-15.31,7.34-19.55c4.08-3.52,9.06-5.28,14.94-5.28c6.53,0,11.87,2.14,16.01,6.42
			c4.14,4.28,6.22,10.19,6.22,17.74c0,6.11-0.92,10.92-2.75,14.43c-1.83,3.5-4.5,6.23-8.01,8.16s-7.33,2.91-11.47,2.91
			c-6.65,0-12.03-2.13-16.13-6.4C794.53,344.15,792.48,338.01,792.48,329.99z M800.75,329.99c0,6.08,1.33,10.64,3.98,13.67
			c2.65,3.03,5.99,4.54,10.02,4.54c4,0,7.32-1.52,9.98-4.56c2.65-3.04,3.98-7.68,3.98-13.91c0-5.87-1.33-10.33-4-13.35
			c-2.67-3.03-5.99-4.54-9.95-4.54c-4.03,0-7.37,1.51-10.02,4.52C802.08,319.36,800.75,323.9,800.75,329.99z"/>
		<path d="M843.43,329.99c0-8.8,2.44-15.31,7.34-19.55c4.09-3.52,9.07-5.28,14.94-5.28c6.53,0,11.87,2.14,16.01,6.42
			c4.15,4.28,6.22,10.19,6.22,17.74c0,6.11-0.92,10.92-2.75,14.43c-1.83,3.5-4.5,6.23-8.01,8.16c-3.5,1.94-7.33,2.91-11.47,2.91
			c-6.65,0-12.03-2.13-16.13-6.4C845.48,344.15,843.43,338.01,843.43,329.99z M851.71,329.99c0,6.08,1.33,10.64,3.98,13.67
			c2.65,3.03,6,4.54,10.02,4.54c4,0,7.32-1.52,9.97-4.56c2.65-3.04,3.98-7.68,3.98-13.91c0-5.87-1.34-10.33-4-13.35
			c-2.67-3.03-5.99-4.54-9.95-4.54c-4.03,0-7.37,1.51-10.02,4.52C853.03,319.36,851.71,323.9,851.71,329.99z"/>
		<path d="M897.2,353.74v-65.58h8.05v65.58H897.2z"/>
		<path d="M914.51,339.56l7.96-1.25c0.45,3.19,1.69,5.64,3.73,7.34s4.9,2.55,8.57,2.55c3.7,0,6.44-0.75,8.23-2.26
			s2.69-3.27,2.69-5.3c0-1.82-0.79-3.25-2.37-4.29c-1.1-0.72-3.85-1.62-8.23-2.73c-5.9-1.49-10-2.78-12.28-3.87
			c-2.28-1.09-4.01-2.59-5.19-4.52s-1.77-4.05-1.77-6.38c0-2.12,0.48-4.08,1.45-5.88s2.29-3.3,3.96-4.5
			c1.25-0.92,2.96-1.71,5.12-2.35c2.16-0.64,4.48-0.96,6.96-0.96c3.73,0,7,0.54,9.82,1.61c2.82,1.07,4.9,2.53,6.24,4.36
			c1.34,1.83,2.27,4.29,2.77,7.36l-7.87,1.07c-0.36-2.44-1.39-4.35-3.11-5.73c-1.71-1.37-4.14-2.06-7.27-2.06
			c-3.7,0-6.34,0.61-7.92,1.83c-1.58,1.22-2.37,2.65-2.37,4.29c0,1.04,0.33,1.98,0.98,2.82c0.66,0.87,1.68,1.58,3.09,2.15
			c0.81,0.3,3.18,0.98,7.11,2.06c5.7,1.52,9.67,2.77,11.92,3.74c2.25,0.97,4.02,2.38,5.3,4.23c1.28,1.85,1.92,4.15,1.92,6.89
			c0,2.68-0.78,5.21-2.35,7.58c-1.56,2.37-3.82,4.21-6.78,5.5c-2.95,1.3-6.29,1.95-10.02,1.95c-6.17,0-10.88-1.28-14.11-3.85
			C917.47,348.4,915.41,344.6,914.51,339.56z"/>
	</g>
	<g>
		<path d="M542.95,428.31v-27.97h9.64c2.18,0,3.83,0.13,4.98,0.4c1.6,0.37,2.97,1.04,4.1,2c1.47,1.25,2.58,2.84,3.31,4.78
			c0.73,1.94,1.1,4.16,1.1,6.65c0,2.12-0.25,4.01-0.74,5.65c-0.5,1.64-1.13,3-1.91,4.07s-1.62,1.92-2.55,2.54
			c-0.92,0.62-2.04,1.08-3.34,1.4c-1.3,0.32-2.8,0.48-4.49,0.48H542.95z M546.65,425.01h5.97c1.84,0,3.29-0.17,4.34-0.52
			c1.05-0.34,1.89-0.83,2.51-1.45c0.88-0.88,1.56-2.06,2.05-3.54c0.49-1.48,0.73-3.28,0.73-5.39c0-2.93-0.48-5.17-1.44-6.75
			c-0.96-1.57-2.13-2.62-3.5-3.16c-0.99-0.38-2.59-0.57-4.79-0.57h-5.88V425.01z"/>
		<path d="M569.45,418.18c0-3.75,1.04-6.53,3.13-8.34c1.74-1.5,3.87-2.25,6.37-2.25c2.79,0,5.06,0.91,6.83,2.74
			c1.77,1.83,2.65,4.35,2.65,7.57c0,2.61-0.39,4.66-1.17,6.15c-0.78,1.5-1.92,2.66-3.42,3.48c-1.5,0.83-3.13,1.24-4.89,1.24
			c-2.84,0-5.13-0.91-6.88-2.73S569.45,421.6,569.45,418.18z M572.98,418.18c0,2.59,0.57,4.54,1.7,5.83s2.56,1.94,4.27,1.94
			c1.7,0,3.12-0.65,4.25-1.95c1.13-1.3,1.7-3.28,1.7-5.93c0-2.51-0.57-4.4-1.71-5.7c-1.14-1.29-2.55-1.94-4.25-1.94
			c-1.72,0-3.14,0.64-4.27,1.93C573.55,413.64,572.98,415.58,572.98,418.18z"/>
		<path d="M605.75,428.31v-2.98c-1.58,2.29-3.72,3.43-6.43,3.43c-1.2,0-2.31-0.23-3.35-0.69c-1.04-0.46-1.81-1.03-2.31-1.73
			c-0.5-0.69-0.86-1.54-1.06-2.55c-0.14-0.67-0.21-1.74-0.21-3.21v-12.55h3.43v11.24c0,1.79,0.07,3,0.21,3.63
			c0.22,0.9,0.67,1.61,1.37,2.13c0.7,0.52,1.56,0.77,2.6,0.77c1.03,0,2-0.26,2.9-0.79c0.9-0.53,1.54-1.25,1.92-2.16
			s0.56-2.23,0.56-3.96v-10.86h3.43v20.26H605.75z"/>
		<path d="M617.37,428.31h-3.19v-27.97h3.43v9.98c1.45-1.82,3.3-2.73,5.55-2.73c1.25,0,2.43,0.25,3.54,0.75
			c1.11,0.5,2.03,1.21,2.75,2.12c0.72,0.91,1.28,2.01,1.69,3.29s0.61,2.66,0.61,4.12c0,3.47-0.86,6.16-2.58,8.05
			c-1.72,1.9-3.78,2.84-6.18,2.84c-2.39,0-4.27-1-5.63-3V428.31z M617.33,418.03c0,2.43,0.33,4.18,0.99,5.27
			c1.08,1.77,2.54,2.65,4.39,2.65c1.5,0,2.8-0.65,3.89-1.96c1.09-1.3,1.64-3.25,1.64-5.83c0-2.65-0.52-4.6-1.57-5.86
			c-1.05-1.26-2.32-1.89-3.81-1.89c-1.5,0-2.8,0.65-3.89,1.96C617.87,413.67,617.33,415.56,617.33,418.03z"/>
		<path d="M635.85,428.31v-27.97h3.43v27.97H635.85z"/>
		<path d="M658.48,421.79l3.55,0.44c-0.56,2.07-1.6,3.68-3.11,4.83c-1.51,1.15-3.45,1.72-5.8,1.72c-2.96,0-5.31-0.91-7.05-2.74
			s-2.6-4.38-2.6-7.68c0-3.41,0.88-6.05,2.63-7.94c1.75-1.88,4.03-2.82,6.83-2.82c2.71,0,4.92,0.92,6.64,2.77
			c1.72,1.84,2.58,4.44,2.58,7.79c0,0.2-0.01,0.51-0.02,0.92h-15.11c0.13,2.23,0.76,3.93,1.89,5.11c1.13,1.18,2.54,1.77,4.24,1.77
			c1.26,0,2.33-0.33,3.22-0.99C657.26,424.29,657.96,423.24,658.48,421.79z M647.21,416.23h11.31c-0.15-1.7-0.58-2.98-1.3-3.83
			c-1.09-1.32-2.51-1.98-4.25-1.98c-1.58,0-2.9,0.53-3.98,1.58C647.92,413.05,647.32,414.46,647.21,416.23z"/>
		<path d="M665.01,419.92v-3.45h10.55v3.45H665.01z"/>
		<path d="M686.86,425.24l0.5,3.03c-0.97,0.2-1.83,0.31-2.59,0.31c-1.25,0-2.21-0.2-2.9-0.59c-0.69-0.39-1.17-0.91-1.45-1.56
			c-0.28-0.64-0.42-1.99-0.42-4.05v-11.66h-2.52v-2.67h2.52v-5.02l3.42-2.06v7.08h3.45v2.67h-3.45v11.85c0,0.98,0.06,1.61,0.18,1.89
			c0.12,0.28,0.32,0.5,0.59,0.67s0.67,0.25,1.17,0.25C685.73,425.37,686.23,425.33,686.86,425.24z"/>
		<path d="M688.94,418.18c0-3.75,1.04-6.53,3.13-8.34c1.74-1.5,3.87-2.25,6.37-2.25c2.79,0,5.06,0.91,6.83,2.74
			c1.77,1.83,2.65,4.35,2.65,7.57c0,2.61-0.39,4.66-1.17,6.15c-0.78,1.5-1.92,2.66-3.42,3.48c-1.5,0.83-3.13,1.24-4.89,1.24
			c-2.84,0-5.13-0.91-6.88-2.73S688.94,421.6,688.94,418.18z M692.47,418.18c0,2.59,0.57,4.54,1.7,5.83s2.56,1.94,4.27,1.94
			c1.7,0,3.12-0.65,4.25-1.95c1.13-1.3,1.7-3.28,1.7-5.93c0-2.51-0.57-4.4-1.71-5.7c-1.14-1.29-2.55-1.94-4.25-1.94
			c-1.72,0-3.14,0.64-4.27,1.93C693.03,413.64,692.47,415.58,692.47,418.18z"/>
		<path d="M711.95,428.31v-20.26h3.09v2.88c1.49-2.23,3.64-3.34,6.45-3.34c1.22,0,2.34,0.22,3.37,0.66c1.02,0.44,1.79,1.01,2.3,1.73
			c0.51,0.71,0.87,1.56,1.07,2.54c0.13,0.64,0.19,1.75,0.19,3.34v12.46h-3.43v-12.33c0-1.4-0.13-2.45-0.4-3.14
			c-0.27-0.69-0.74-1.25-1.42-1.66c-0.68-0.41-1.48-0.62-2.39-0.62c-1.46,0-2.73,0.46-3.79,1.39c-1.06,0.93-1.59,2.69-1.59,5.29
			v11.07H711.95z"/>
		<path d="M733.05,429.99l3.34,0.5c0.14,1.03,0.53,1.78,1.16,2.25c0.85,0.64,2.02,0.95,3.49,0.95c1.59,0,2.82-0.32,3.68-0.95
			c0.86-0.64,1.45-1.53,1.75-2.67c0.18-0.7,0.26-2.17,0.25-4.41c-1.5,1.77-3.37,2.65-5.61,2.65c-2.79,0-4.94-1-6.47-3.01
			s-2.29-4.42-2.29-7.23c0-1.93,0.35-3.72,1.05-5.35s1.71-2.9,3.04-3.79c1.33-0.89,2.89-1.34,4.68-1.34c2.39,0,4.36,0.97,5.92,2.9
			v-2.44h3.17v17.52c0,3.16-0.32,5.39-0.96,6.71s-1.66,2.36-3.05,3.12c-1.39,0.76-3.11,1.14-5.14,1.14c-2.42,0-4.37-0.54-5.86-1.63
			C733.72,433.82,733,432.18,733.05,429.99z M735.89,417.82c0,2.66,0.53,4.6,1.58,5.82s2.38,1.83,3.97,1.83
			c1.58,0,2.9-0.61,3.97-1.82s1.6-3.12,1.6-5.71c0-2.48-0.55-4.35-1.65-5.61c-1.1-1.26-2.43-1.89-3.98-1.89
			c-1.53,0-2.82,0.62-3.89,1.86C736.43,413.53,735.89,415.37,735.89,417.82z"/>
		<path d="M768.7,428.31v-2.98c-1.58,2.29-3.72,3.43-6.43,3.43c-1.2,0-2.31-0.23-3.35-0.69c-1.04-0.46-1.81-1.03-2.31-1.73
			c-0.5-0.69-0.86-1.54-1.06-2.55c-0.14-0.67-0.21-1.74-0.21-3.21v-12.55h3.43v11.24c0,1.79,0.07,3,0.21,3.63
			c0.22,0.9,0.67,1.61,1.37,2.13c0.7,0.52,1.56,0.77,2.6,0.77c1.03,0,2-0.26,2.9-0.79c0.9-0.53,1.54-1.25,1.92-2.16
			s0.56-2.23,0.56-3.96v-10.86h3.43v20.26H768.7z"/>
		<path d="M791.02,421.79l3.55,0.44c-0.56,2.07-1.6,3.68-3.11,4.83c-1.51,1.15-3.45,1.72-5.8,1.72c-2.96,0-5.31-0.91-7.05-2.74
			s-2.6-4.38-2.6-7.68c0-3.41,0.88-6.05,2.63-7.94c1.75-1.88,4.03-2.82,6.83-2.82c2.71,0,4.92,0.92,6.64,2.77
			c1.72,1.84,2.58,4.44,2.58,7.79c0,0.2-0.01,0.51-0.02,0.92h-15.11c0.13,2.23,0.76,3.93,1.89,5.11c1.13,1.18,2.54,1.77,4.24,1.77
			c1.26,0,2.33-0.33,3.22-0.99C789.79,424.29,790.5,423.24,791.02,421.79z M779.74,416.23h11.31c-0.15-1.7-0.58-2.98-1.3-3.83
			c-1.09-1.32-2.51-1.98-4.25-1.98c-1.58,0-2.9,0.53-3.98,1.58C780.45,413.05,779.86,414.46,779.74,416.23z"/>
		<path d="M812.03,428.31v-2.56c-1.29,2.01-3.17,3.01-5.67,3.01c-1.62,0-3.1-0.45-4.46-1.34c-1.36-0.89-2.4-2.13-3.15-3.73
			c-0.74-1.6-1.12-3.43-1.12-5.5c0-2.02,0.34-3.86,1.01-5.5c0.67-1.65,1.69-2.91,3.03-3.79c1.35-0.88,2.86-1.32,4.52-1.32
			c1.22,0,2.31,0.26,3.26,0.77c0.95,0.52,1.73,1.19,2.33,2.01v-10.04h3.42v27.97H812.03z M801.17,418.2c0,2.6,0.55,4.54,1.64,5.82
			c1.09,1.29,2.38,1.93,3.87,1.93c1.5,0,2.78-0.61,3.83-1.84c1.05-1.23,1.57-3.1,1.57-5.62c0-2.77-0.54-4.81-1.6-6.11
			c-1.07-1.3-2.38-1.95-3.95-1.95c-1.53,0-2.8,0.62-3.83,1.87C801.68,413.55,801.17,415.51,801.17,418.2z"/>
		<path d="M838.97,425.24l0.5,3.03c-0.97,0.2-1.83,0.31-2.59,0.31c-1.25,0-2.21-0.2-2.9-0.59c-0.69-0.39-1.17-0.91-1.45-1.56
			c-0.28-0.64-0.42-1.99-0.42-4.05v-11.66h-2.52v-2.67h2.52v-5.02l3.42-2.06v7.08h3.45v2.67h-3.45v11.85c0,0.98,0.06,1.61,0.18,1.89
			c0.12,0.28,0.32,0.5,0.59,0.67s0.67,0.25,1.17,0.25C837.84,425.37,838.35,425.33,838.97,425.24z"/>
		<path d="M841.05,418.18c0-3.75,1.04-6.53,3.13-8.34c1.74-1.5,3.87-2.25,6.37-2.25c2.79,0,5.06,0.91,6.83,2.74
			c1.77,1.83,2.65,4.35,2.65,7.57c0,2.61-0.39,4.66-1.17,6.15c-0.78,1.5-1.92,2.66-3.42,3.48c-1.5,0.83-3.13,1.24-4.89,1.24
			c-2.84,0-5.13-0.91-6.88-2.73S841.05,421.6,841.05,418.18z M844.58,418.18c0,2.59,0.57,4.54,1.7,5.83s2.56,1.94,4.27,1.94
			c1.7,0,3.12-0.65,4.25-1.95c1.13-1.3,1.7-3.28,1.7-5.93c0-2.51-0.57-4.4-1.71-5.7c-1.14-1.29-2.55-1.94-4.25-1.94
			c-1.72,0-3.14,0.64-4.27,1.93C845.15,413.64,844.58,415.58,844.58,418.18z"/>
		<path d="M862.78,418.18c0-3.75,1.04-6.53,3.13-8.34c1.74-1.5,3.87-2.25,6.37-2.25c2.79,0,5.06,0.91,6.83,2.74
			c1.77,1.83,2.65,4.35,2.65,7.57c0,2.61-0.39,4.66-1.17,6.15c-0.78,1.5-1.92,2.66-3.42,3.48c-1.5,0.83-3.13,1.24-4.89,1.24
			c-2.84,0-5.13-0.91-6.88-2.73S862.78,421.6,862.78,418.18z M866.31,418.18c0,2.59,0.57,4.54,1.7,5.83s2.56,1.94,4.27,1.94
			c1.7,0,3.12-0.65,4.25-1.95c1.13-1.3,1.7-3.28,1.7-5.93c0-2.51-0.57-4.4-1.71-5.7c-1.14-1.29-2.55-1.94-4.25-1.94
			c-1.72,0-3.14,0.64-4.27,1.93C866.88,413.64,866.31,415.58,866.31,418.18z"/>
		<path d="M885.72,428.31v-27.97h3.43v27.97H885.72z"/>
		<path d="M893.1,422.26l3.4-0.53c0.19,1.36,0.72,2.4,1.59,3.13c0.87,0.73,2.09,1.09,3.65,1.09c1.58,0,2.75-0.32,3.51-0.96
			c0.76-0.64,1.14-1.4,1.14-2.26c0-0.78-0.34-1.39-1.01-1.83c-0.47-0.3-1.64-0.69-3.51-1.16c-2.52-0.64-4.26-1.19-5.24-1.65
			c-0.97-0.46-1.71-1.11-2.21-1.93c-0.5-0.82-0.75-1.73-0.75-2.72c0-0.9,0.21-1.74,0.62-2.51c0.41-0.77,0.98-1.41,1.69-1.92
			c0.53-0.39,1.26-0.73,2.18-1c0.92-0.27,1.91-0.41,2.97-0.41c1.59,0,2.99,0.23,4.19,0.69c1.2,0.46,2.09,1.08,2.66,1.86
			s0.97,1.83,1.18,3.14l-3.36,0.46c-0.15-1.04-0.59-1.86-1.33-2.44c-0.73-0.58-1.77-0.88-3.1-0.88c-1.58,0-2.7,0.26-3.38,0.78
			c-0.67,0.52-1.01,1.13-1.01,1.83c0,0.45,0.14,0.85,0.42,1.2c0.28,0.37,0.72,0.67,1.32,0.92c0.34,0.13,1.35,0.42,3.03,0.88
			c2.43,0.65,4.12,1.18,5.08,1.59c0.96,0.41,1.71,1.01,2.26,1.8s0.82,1.77,0.82,2.94c0,1.14-0.33,2.22-1,3.23
			c-0.67,1.01-1.63,1.79-2.89,2.35c-1.26,0.55-2.68,0.83-4.27,0.83c-2.63,0-4.64-0.55-6.02-1.64
			C894.36,426.03,893.48,424.41,893.1,422.26z"/>
	</g>
</g>
<g id="Layer_3">
	<path class="st1" d="M169.25,202.1c-10.03,9.35-17.08,22.18-21.16,38.49l29.57,7.14c2.04-8.84,5.44-15.89,10.2-21.16
		c4.76-5.27,10.03-7.9,15.81-7.9s11.05,2.63,15.81,7.9c4.76,5.27,8.16,12.32,10.2,21.16l29.57-7.14
		c-4.08-16.32-11.13-29.15-21.16-38.49s-21.5-14.02-34.42-14.02S179.28,192.75,169.25,202.1z"/>
	<path class="st1" d="M274.98,289.88v30.59H224.1v10.2c0,14.28,4.93,26.34,14.79,36.2c9.83,9.83,21.87,14.76,36.1,14.78v30.59
		c-22.39-0.02-41.56-8.01-57.52-23.96c-15.98-15.98-23.96-35.18-23.96-57.62v-40.79H274.98z"/>
</g>
</svg>
